<?xml version="1.0" encoding="iso-8859-1"?>
<!-- Generator: Adobe Illustrator 19.0.0, SVG Export Plug-In . SVG Version: 6.00 Build 0)  -->
<svg version="1.1" id="Layer_1" xmlns="http://www.w3.org/2000/svg" xmlns:xlink="http://www.w3.org/1999/xlink" x="0px" y="0px"
	 viewBox="0 0 512 512" style="enable-background:new 0 0 512 512;" xml:space="preserve">
<path style="fill:#EAFFFF;" d="M445.217,489.739H66.783c-24.588,0-44.522-19.934-44.522-44.522V66.783
	c0-24.588,19.933-44.522,44.522-44.522h378.435c24.588,0,44.522,19.933,44.522,44.522v378.435
	C489.739,469.806,469.806,489.739,445.217,489.739z"/>
<path style="fill:#BBF260;" d="M33.391,111.304h15.254c4.621,0,9.192,0.959,13.423,2.817l429.963,188.764
	C504.164,308.213,512,320.209,512,333.46v145.149C512,497.051,497.051,512,478.609,512H33.391C14.949,512,0,497.051,0,478.609
	V144.696C0,126.254,14.949,111.304,33.391,111.304z"/>
<path style="fill:#DDB900;" d="M512,289.391v200.348c0,12.295-9.966,22.261-22.261,22.261H22.261C9.966,512,0,502.034,0,489.739
	v-11.583c0-13.251,7.836-25.248,19.968-30.574l429.963-188.764c4.232-1.858,8.802-2.817,13.423-2.817h15.254
	C497.051,256,512,270.949,512,289.391z"/>
<path style="fill:#CC9600;" d="M478.609,512H33.391c-2.863,0-5.641-0.362-8.292-1.038L512,297.199v181.409
	C512,497.051,497.051,512,478.609,512z"/>
<path style="fill:#DDB900;" d="M512,478.609C512,497.051,497.051,512,478.609,512H166.315L512,360.235V478.609z"/>
<path style="fill:#CC9600;" d="M512,489.739c0,12.295-9.966,22.261-22.261,22.261H311.011L512,423.76V489.739z"/>
<path style="fill:#9FBA41;" d="M197.503,213.704h-81.102c-42.866,0-74.869-39.443-66.038-81.388l11.636-55.272
	C71.452,32.142,111.065,0,156.951,0l0,0c45.886,0,85.5,32.142,94.953,77.044l11.636,55.272
	C272.372,174.261,240.368,213.704,197.503,213.704z"/>
<path style="fill:#FFFF81;" d="M417.391,0C469.642,0,512,42.358,512,94.609s-42.358,94.609-94.609,94.609
	s-94.609-42.358-94.609-94.609S365.141,0,417.391,0z"/>
<path style="fill:#FFF145;" d="M417.391,44.522c27.662,0,50.087,22.424,50.087,50.087s-22.424,50.087-50.087,50.087
	c-27.662,0-50.087-22.424-50.087-50.087S389.729,44.522,417.391,44.522z"/>
<path style="fill:#9FBA41;" d="M165.299,267.13c0,4.61-3.738,8.348-8.348,8.348H66.783c-4.61,0-8.348-3.738-8.348-8.348
	s3.738-8.348,8.348-8.348h90.169C161.562,258.783,165.299,262.52,165.299,267.13z M222.609,303.304h-33.391
	c-4.61,0-8.348,3.738-8.348,8.348s3.738,8.348,8.348,8.348h33.391c4.61,0,8.348-3.738,8.348-8.348S227.219,303.304,222.609,303.304z
	 M111.304,314.435H77.913c-4.61,0-8.348,3.738-8.348,8.348s3.738,8.348,8.348,8.348h33.391c4.61,0,8.348-3.738,8.348-8.348
	S115.915,314.435,111.304,314.435z M77.913,370.087H44.522c-4.61,0-8.348,3.738-8.348,8.348c0,4.61,3.738,8.348,8.348,8.348h33.391
	c4.61,0,8.348-3.738,8.348-8.348C86.261,373.825,82.523,370.087,77.913,370.087z M278.261,247.652H244.87
	c-4.61,0-8.348,3.738-8.348,8.348s3.738,8.348,8.348,8.348h33.391c4.61,0,8.348-3.738,8.348-8.348S282.871,247.652,278.261,247.652z
	"/>
<path style="fill:#A07040;" d="M165.299,133.565V267.13c0,4.61-3.738,8.348-8.348,8.348s-8.348-3.738-8.348-8.348V133.565
	c0-4.61,3.738-8.348,8.348-8.348S165.299,128.955,165.299,133.565z"/>
<g>
</g>
<g>
</g>
<g>
</g>
<g>
</g>
<g>
</g>
<g>
</g>
<g>
</g>
<g>
</g>
<g>
</g>
<g>
</g>
<g>
</g>
<g>
</g>
<g>
</g>
<g>
</g>
<g>
</g>
</svg>
